/* XPM */
static char *d9e4e748f6954bbbd403ade022c6e98eRH6b719Kwc0gN2eh[] = {
/* columns rows colors chars-per-pixel */
"63 63 238 2 ",
"   c None",
".  c #012A9D",
"X  c #012B9E",
"o  c #012C9F",
"O  c #012DA0",
"+  c #012FA2",
"@  c #0130A2",
"#  c #0131A4",
"$  c #0133A5",
"%  c #0138AA",
"&  c #013AAC",
"*  c #013CAE",
"=  c #0140B1",
"-  c #0143B4",
";  c #0145B6",
":  c #0146B7",
">  c #0151C3",
",  c #0152C3",
"<  c #0155C6",
"1  c #0156C6",
"2  c #0157C7",
"3  c #0159CA",
"4  c #015ACA",
"5  c #015DCD",
"6  c #015ECE",
"7  c #0163D2",
"8  c #0168D7",
"9  c #006CDC",
"0  c #0076E4",
"q  c #007DEB",
"w  c #007FEC",
"e  c #0E7EFE",
"r  c #0086F4",
"t  c #0886FE",
"y  c #0986FE",
"u  c #008AFF",
"i  c #0789FF",
"p  c #058BFF",
"a  c #008DFF",
"s  c #028EFF",
"d  c #038EFF",
"f  c #028FFF",
"g  c #058CFF",
"h  c #058DFF",
"j  c #0090FF",
"k  c #0190FF",
"l  c #0191FF",
"z  c #0290FF",
"x  c #0092FF",
"c  c #0192FF",
"v  c #0093FF",
"b  c #0193FF",
"n  c #0292FF",
"m  c #0293FF",
"M  c #0393FF",
"N  c #0493FF",
"B  c #0593FF",
"V  c #0194FF",
"C  c #0294FF",
"Z  c #0394FF",
"A  c #0396FF",
"S  c #0494FF",
"D  c #0594FF",
"F  c #0495FF",
"G  c #0595FF",
"H  c #0694FF",
"J  c #0695FF",
"K  c #0596FF",
"L  c #0497FF",
"P  c #0697FE",
"I  c #0696FF",
"U  c #0796FF",
"Y  c #0697FF",
"T  c #0797FF",
"R  c #0895FF",
"E  c #0A95FF",
"W  c #0896FF",
"Q  c #0996FF",
"!  c #0897FF",
"~  c #0997FF",
"^  c #0B96FF",
"/  c #0A97FF",
"(  c #0D95FF",
")  c #0C96FF",
"_  c #0C97FF",
"`  c #0598FF",
"'  c #069AFF",
"]  c #079BFF",
"[  c #0898FF",
"{  c #0998FF",
"}  c #0999FF",
"|  c #0A98FF",
" . c #0B98FF",
".. c #0A99FF",
"X. c #0B99FF",
"o. c #089AFF",
"O. c #089BFF",
"+. c #0C98FF",
"@. c #0C99FF",
"#. c #0E99FF",
"$. c #0C9AFF",
"%. c #0D9BFF",
"&. c #0E9AFF",
"*. c #0F9AFF",
"=. c #0E9BFF",
"-. c #0F9BFF",
";. c #089CFF",
":. c #099CFF",
">. c #0A9EFF",
",. c #0A9FFF",
"<. c #0E9CFF",
"1. c #1597FF",
"2. c #129BFF",
"3. c #149BFF",
"4. c #159BFF",
"5. c #109DFF",
"6. c #129CFE",
"7. c #129DFF",
"8. c #139EFF",
"9. c #179EFD",
"0. c #159CFF",
"q. c #149DFF",
"w. c #169DFF",
"e. c #149EFF",
"r. c #189EFF",
"t. c #1A9FFF",
"y. c #1C9CFF",
"u. c #209DFF",
"i. c #0CA0FF",
"p. c #0CA1FF",
"a. c #0EA3FF",
"s. c #15A0FF",
"d. c #17A0FF",
"f. c #17A1FF",
"g. c #1BA1FF",
"h. c #19A2FF",
"j. c #1AA2FE",
"k. c #1AA2FF",
"l. c #1EA0FF",
"z. c #1DA3FF",
"x. c #1FA3FF",
"c. c #18A4FF",
"v. c #1BA4FF",
"b. c #1DA7FF",
"n. c #18A8FE",
"m. c #1AA8FE",
"M. c #1FAAFF",
"N. c #21A5FF",
"B. c #22A7FF",
"V. c #25A7FF",
"C. c #28A5FF",
"Z. c #22A8FF",
"A. c #27A8FF",
"S. c #27A9FF",
"D. c #26AAFF",
"F. c #26ABFF",
"G. c #22ACFF",
"H. c #21AFFE",
"J. c #25AEFF",
"K. c #2DA9FB",
"L. c #2AA9FF",
"P. c #2AABFF",
"I. c #2CA9FE",
"U. c #2FAAFF",
"Y. c #30A1FF",
"T. c #33ACFE",
"R. c #35AFFE",
"E. c #3AABFF",
"W. c #3EA8FF",
"Q. c #2DB3FF",
"!. c #30B1FF",
"~. c #36B3FE",
"^. c #36B3FF",
"/. c #32B6FF",
"(. c #37B6FF",
"). c #37BCFF",
"_. c #40AEFF",
"`. c #41B3FF",
"'. c #4AB9FE",
"]. c #4CBAFF",
"[. c #57BCFF",
"{. c #5AB9FF",
"}. c #58BFFE",
"|. c #4BC2FF",
" X c #4DC4FF",
".X c #56CAFF",
"XX c #5DC9FF",
"oX c #5DCAFF",
"OX c #5CCEFF",
"+X c #5DCEFF",
"@X c #67C4F5",
"#X c #65C7FE",
"$X c #63C8FE",
"%X c #63CFFE",
"&X c #70C7FE",
"*X c #76C8FF",
"=X c #78CDFF",
"-X c #62D2FF",
";X c #66D0FE",
":X c #6AD3FE",
">X c #6ED6FE",
",X c #6FD7FE",
"<X c #73D1FE",
"1X c #7CD3FE",
"2X c #7BD6FE",
"3X c #74D9FE",
"4X c #76D9FF",
"5X c #75DAFE",
"6X c #78D8FF",
"7X c #7ADAFF",
"8X c #81CDFF",
"9X c #85D1FE",
"0X c #81D9FE",
"qX c #86DBFE",
"wX c #81DEFF",
"eX c #8FDEFF",
"rX c #95DCF1",
"tX c #90DBFE",
"yX c #84E0FF",
"uX c #8EE0FE",
"iX c #93E0FE",
"pX c #91E2FE",
"aX c #92E2FE",
"sX c #92E3FE",
"dX c #93E3FE",
"fX c #A5E8FE",
"gX c #ABE9FE",
"hX c #AFECFE",
"jX c #B2E7FE",
"kX c #B1EDFE",
"lX c #B2ECFE",
"zX c #B3EDFE",
"xX c #BBEBFE",
"cX c #C0EDFE",
"vX c #C4EFFE",
"bX c #C7F0FE",
"nX c #CAF2FE",
"mX c #DCF4FB",
/* pixels */
"                                                                                                                              ",
"                                                                                                                              ",
"                                                                                                                              ",
"                                                                                                                              ",
"                                                                                                                              ",
"                                                                                                                              ",
"                                                                                                                              ",
"                                                                                                                              ",
"                                                                                                                              ",
"                                                                                                                              ",
"                                                                                                                              ",
"                                                                                                                              ",
"                                                                                                                              ",
"                                                                                                                              ",
"                                                                                                                              ",
"                                                                                                                              ",
"                                                                                                                              ",
"                                                                                                                              ",
"                                                    . . . . . . . . . .                                                       ",
"                                              . . . mXmXmXmXmXmXmXmXmXmXo & *                                                 ",
"                                            . mXmXmXmXmXmXnXnXnXnXnXnXvX9Xg.r.8                                               ",
"                                          . mXnXnXnXnXvXcXzXzXzXlXgXtX[.4.B x / 4                                             ",
"                                        . zXzXzXzXzXhX#XT.'.'.`.T.r.5.S x x x x R.,                                           ",
"                                      . xXfXfXdXdXdX$X/ x C S S x x x S x x x / r.B 5                                         ",
"                                    . zXxXdX5X5X3XXX#.x x S 8.#.S C S  .C S <.c.S x 8..                                       ",
"                                  . rXfXfXzX5X5X>XP.x #.8.j.D.(.!.f. .<.F.J.c.S S x  .3X.                                     ",
"                                . rXdXdXdXdXxX-X Xf.C 5.(. .x S  .C  .Z.H.b. .C C x S .X5X.                                   ",
"                                . yXyXyXyXyXdXmXjXE.x S S x x C C C C w.B / y._ C x / .X-X.                                   ",
"                                # <X7XyXyX5XfXfXzX&X/ x x x x x S _ x x x x u / x x #.OX-X.                                   ",
"                                4 #.V.5X5X3XzXdXdXtX}.P.g._ x B x ,.,. .x x d x x C Z.OXwX.                                   ",
"                                1 S S P.;XdXdXdXdXdXdXqX2Xg.S S x S a.a.x x x x C x <.~.@XO                                   ",
"                                  q B S g.1XdXdXyXyX5XyX0XN.w.S x x a.x x x x x C x C w.5                                     ",
"                                    r B B 9.XX5X-X5X5X5X5XP.g.B x C #.x x x x  .C S K.1                                       ",
"                                      r S x #. X-X5X5X-X:XD.g./ x / S S `  .C x x 4.%                                         ",
"                                        0 S x r.=XeXdX5X;Xj.w./ x  . .I.W./ x S 1.-                                           ",
"                                          9 x x C c.{.8X*XC.#./ x y._ u g x g g @                                             ",
"                                            7 x x C M./.H.,./ x x y i i x d x .                                               ",
"                                              1 C x x 8.).m.` S d e y x d / .                                                 ",
"                                                : S x x 8.Q.` x d g x x ,.o                                                   ",
"                                                  =  .C x N. .x x x x  .O                                                     ",
"                                                    = <.C S S x x x ,.@                                                       ",
"                                                      :  .x x x ` ,..                                                         ",
"                                                        4 S C _ a..                                                           ",
"                                                          , j.E..                                                             ",
"                                                            # O                                                               ",
"                                                                                                                              ",
"                                                                                                                              ",
"                                                                                                                              ",
"                                                                                                                              ",
"                                                                                                                              ",
"                                                                                                                              ",
"                                                                                                                              ",
"                                                                                                                              ",
"                                                                                                                              ",
"                                                                                                                              ",
"                                                                                                                              ",
"                                                                                                                              ",
"                                                                                                                              ",
"                                                                                                                              ",
"                                                                                                                              ",
"                                                                                                                              ",
"                                                                                                                              ",
"                                                                                                                              "
};
