/* XPM */
static char *result[] = {
/* columns rows colors chars-per-pixel */
"63 63 128 2 ",
"   c #6E5967",
".  c #6D5C6B",
"X  c #745C69",
"o  c #7B5E6B",
"O  c #6E616F",
"+  c #76606B",
"@  c #7B626D",
"#  c #676675",
"$  c #6E6674",
"%  c #6E6876",
"&  c #646D7D",
"*  c #726572",
"=  c #746A77",
"-  c #736E7A",
";  c #77737F",
":  c #815F6E",
">  c #83616E",
",  c #89646F",
"<  c #816570",
"1  c #8B6471",
"2  c #856B73",
"3  c #8D6E75",
"4  c #896C78",
"5  c #936673",
"6  c #936B74",
"7  c #9A6975",
"8  c #9F6A78",
"9  c #8C7176",
"0  c #947176",
"q  c #95737A",
"w  c #9C7579",
"e  c #9C797D",
"r  c #A16C76",
"t  c #A66D79",
"y  c #AA6F7A",
"u  c #B86B78",
"i  c #A3767B",
"p  c #AD707B",
"a  c #A37A7E",
"s  c #A97A7E",
"d  c #B5777C",
"f  c #C9757E",
"g  c #C17B7F",
"h  c #5E7687",
"j  c #5F7788",
"k  c #5E7889",
"l  c #657383",
"z  c #637B8B",
"x  c #6B7C8B",
"c  c #717381",
"v  c #787681",
"b  c #797D88",
"n  c #A47D80",
"m  c #AC7E81",
"M  c #B57D82",
"N  c #C57D80",
"B  c #6B808F",
"V  c #71808E",
"C  c #6C8392",
"Z  c #718594",
"A  c #758996",
"S  c #758C99",
"D  c #7E8F99",
"F  c #7D949F",
"G  c #7C96A0",
"H  c #A78183",
"J  c #AC8485",
"K  c #AC8B86",
"L  c #B48385",
"P  c #B98486",
"I  c #BB8788",
"U  c #B48A89",
"Y  c #BD8C8B",
"T  c #BD918E",
"R  c #BD988F",
"E  c #839BA4",
"W  c #C18685",
"Q  c #CC8083",
"!  c #C68986",
"~  c #C28E8B",
"^  c #D48385",
"/  c #DD8386",
"(  c #C1928F",
")  c #C9918B",
"_  c #D3948E",
"`  c #C39490",
"'  c #C59992",
"]  c #CB9C92",
"[  c #D89C92",
"{  c #E18989",
"}  c #E5908D",
"|  c #E49891",
" . c #EA9E94",
".. c #CDA396",
"X. c #DAA295",
"o. c #D1A798",
"O. c #DCA698",
"+. c #D2A99A",
"@. c #DEAC9B",
"#. c #EBA297",
"$. c #ECA498",
"%. c #E0AF9D",
"&. c #EEAA9C",
"*. c #F0AE9E",
"=. c #E1B19F",
"-. c #C8B4A8",
";. c #E3B6A2",
":. c #EDB4A0",
">. c #E3BAA5",
",. c #EFBAA4",
"<. c #E2BDA9",
"1. c #F2B2A0",
"2. c #F5BCA6",
"3. c #E2C3AE",
"4. c #F6C1A9",
"5. c #F9C5AB",
"6. c #FBCAAE",
"7. c #E2C6B1",
"8. c #E2C9B4",
"9. c #E2CEB9",
"0. c #F5CBB4",
"q. c #FBCDB1",
"w. c #F5CFB9",
"e. c #E2D2BD",
"r. c #FBD1B5",
"t. c #FBD4B8",
"y. c #FBDBBF",
"u. c None",
/* pixels */
"u.u.u.u.u.u.u.u.u.u.u.u.u.u.u.          +                                               X     u.u.u.u.u.u.u.u.u.u.u.u.u.u.u.u.",
"u.u.u.u.u.u.u.u.u.u.u.u.u.    o.O.w w O.=.=.=.e.3.8.e.7.%.) + _ %.;.;.7.7.<.e.e.e.<.[ w w X...    u.u.u.u.u.u.u.u.u.u.u.u.u.u.",
"u.u.u.u.u.u.u.u.u.u.u.  @ ) o.4.4.K J 4.6.6.6.r.6.r.r.r.6.%.+ *.6.6.6.q.q.q.t.t.r.q.5.J K 4.4.+.) @ X u.u.u.u.u.u.u.u.u.u.u.u.",
"u.u.u.u.u.u.u.u.u.u.0 T -.w.6.6.6.K K 6.6.6.6.6.6.6.6.6.6.>.+ 4.6.6.6.6.6.6.6.6.q.q.q.K K 6.6.6.w.-.T 0 u.u.u.u.u.u.u.u.u.u.u.",
"u.u.u.u.u.u.u.u.u.0 ' w.y.y.6.6.4.H J 2.6.6.6.6.6.6.6.6.5.O.+ =.5.6.6.6.6.6.6.6.6.6.2.J J 2.6.6.y.y.0.' 0 u.u.u.u.u.u.u.u.u.u.",
"u.u.u.u.u.u.u.u.0 ' 0.y.6.6.4.1.$.i i #.1.1.1.1.1.1.1.1.&._ + | *.1.1.1.1.1.1.*.1.1.#.i i $.1.4.6.6.y.0.' 0 u.u.u.u.u.u.u.u.u.",
"u.u.u.u.u.u.u.  Y 6.y.6.6.4.$.} { r 5 g N g N g N N g N N d + d N N N N N N N N N N N 5 r { { #.4.6.6.y.0.Y   u.u.u.u.u.u.u.u.",
"u.u.u.u.u.u.u.@ ] 6.6.6.4.#.{ ^ f 5   X + X o X X X + X       +     X X X o X o X X X X 5 f ^ { #.4.6.6.6...@ u.u.u.u.u.u.u.u.",
"u.u.u.u.u.u.  ) 2.6.6.4.#.{ { >     o 7 p p p p d p p r :     l .   o 8 y y p p p y 8 :     : { { #.4.6.6.2.)   u.u.u.u.u.u.u.",
"u.u.u.u.u.u.  o.6.6.6.2.{ { >     : 8 y p p p p p p p p 7   . l O   5 m p y p p p y y r :   X < { { 2.6.6.6...  u.u.u.u.u.u.u.",
"u.u.u.u.u.  ~ ,.6.6.2.$.^ ,       X X o o o o o o X o o X   . h .   X o o o o o o o X X X       , ^ $.4.6.6.,.)   u.u.u.u.u.u.",
"u.u.u.u.u.  %.6.6.6.2.} ^     : 5 5 7 7 5 7 7 7 7 7 7 5 o   . h .   X             X           X   ^ } 1.6.6.6.%.  u.u.u.u.u.u.",
"u.u.u.u.u.  =.6.6.6.1.^ 6   : 7 y M M P P P P P I I M p 5   . B O   : 5 q n n n e e n q w 7 1 o   7 ^ *.6.6.6.=.  u.u.u.u.u.u.",
"u.u.u.u.u.  @.5.6.4.&.N     7 y y M ~ ` ` ' ` ` ( ( ~ L 7   . Z O   5 M Y T T ` ` ` ` ` ~ L y 7     N &.5.6.5.@.  u.u.u.u.u.u.",
"u.u.u.u.u.  L ] ..' W y     5 7 5 n n m H H H H H H H a 1     B O   > n n H J H H J m H J i 7 5     y W ] ..] L   u.u.u.u.u.u.",
"u.u.u.u.u.  2 3 9 3 , >         o < < @ < < < < @ > < > @ o   z O o @ < < @ < < @ < @ < @ X         > , 2 9 9 <   u.u.u.u.u.u.",
"u.u.u.u.u.  [ 4.6.2. .N   . . . 5 M ` ` ` ` ` ` ` ` ` ` Y t . Z O 7 I ` ` ` ` ` ` ` ` ` P 5 . . .   N  .2.6.4.[   u.u.u.u.u.u.",
"u.u.u.u.u.  ;.q.6.q.1.N . k Z z # e ` ` ` ` ` ` ` ` ` ` ` U   k . J ` ` ` ` ` ` ` ` ` ` e # z Z k . N 1.6.6.6.;.  u.u.u.u.u.u.",
"u.u.u.u.u.  9.r.6.6.1.N . Z E S % n ` ` ` ` ` ` ` ` ` ` ` U . C $ H ` ` ` ` ` ` ` ` ` ` n % S E C O N 1.6.6.r.9.  u.u.u.u.u.u.",
"u.u.u.u.u.  e.r.6.6.1.N   % = * 1 L ` ` ` ` ` ` ` ` ` ` ` U . Z . J ` ` ` ` ` ` ` ` ` ` M 4 % = * . N 1.6.6.t.e.  u.u.u.u.u.u.",
"u.u.u.u.u.  3.q.6.6.1.N X 5 n n L T ` ` ` ` ` ` ` ` ` ` ~ n   G * i I ` ` T ` ` ` ` ` ` ~ U n n 7 X N *.6.6.6.3.  u.u.u.u.u.u.",
"u.u.u.u.u.  7.q.6.6.1.N X 1 q q q n q q q n q q q q q q 0 1 X E * > q q q n q q q q q q n q q q 1 X N 1.6.6.r.3.  u.u.u.u.u.u.",
"u.u.u.u.u.  7.r.6.6.1.N                       X X X         . E * : 4 9 9 q 0 0 0 q 9 q 4 4 q 3 <   N 1.6.6.r.7.  u.u.u.u.u.u.",
"u.u.u.u.u.  ;.6.6.6.*.N   o : : o o : : o : o : : o : : o o   E % t Y ` ` ` ` ` ` ` ` ` T ` ` ` M o N 1.6.6.6.>.  u.u.u.u.u.u.",
"u.u.u.u.u.  ;.6.6.6.1.g X 7 p p p p p p p p p p y d p p y 5   A + J ` ` ` ` ` ` ` ` ` ` ` ` ( ( ` @ N 1.q.6.6.;.  u.u.u.u.u.u.",
"u.u.u.u.u.  ;.6.6.6.1.g X y p p p p p p p p p y y y p p y t . E * H ` ` ` ` ` ` ` ` ` ` ` ` ` ' ( @ N 1.6.6.6.;.  u.u.u.u.u.u.",
"u.u.u.u.u.  [ 2.6.2. .N X 5 y p p p p p p p m y y y p y t 1 . Z $ 7 I ` ` ` ` ` ` ` ' ` ` ` ( ( p X N  .2.6.2.[   u.u.u.u.u.u.",
"u.u.u.u.u.  > 2 2 2 , o   X o X o o X o o o X o o o o o o X X Z O o @ @ @ @ @ @ > @ @ @ @ > @ @ o   o < 2 2 1 >   u.u.u.u.u.u.",
"u.u.u.u.u.  I ..o.] ! p X 8 m H m m m J J J H J H J m J n 5   z O 1 a J H J J J K J H J J J J J 7 X d ! ..o.o.P   u.u.u.u.u.u.",
"u.u.u.u.u.  @.6.q.4.&.N + I T ` ` ` ` ` ` ` ` ` ` ` ` ` ~ m . k . a Y ` ` ` ( ` ` ` ` ( ` ` ( ( I o g *.4.6.5.@.  u.u.u.u.u.u.",
"u.u.u.u.u.  3.q.6.6.:.N @ ` ` ` ` ` ` ` ` ` ` ` ` ` ` Y m q   # . 3 m Y ` ` ` ` ` ` ` ` ( ( ( ( ( @ g 1.6.6.r.3.  u.u.u.u.u.u.",
"u.u.u.u.u.  e.t.6.q.1.N o I ` ` ` ` ` ` ` ` ` ` ` ` ~ M 4 v c   - ; 4 s ( ` ` ` ` ` ` ` ' ( ( ( I @ g 1.6.6.t.e.  u.u.u.u.u.u.",
"u.u.u.u.u.  8.r.6.6.1.N X r J J M J J J J U J J U J n 5 - E E . F E v 1 n J J J J J J J J J J J 8 X g 1.6.6.r.8.X u.u.u.u.u.u.",
"u.u.u.u.u.  >.q.6.6.1.g                                 * S E X x E v X o @ @ @ @ @ @ @ @ @ @ @ X   g 1.6.6.6.>.  u.u.u.u.u.u.",
"u.u.u.u.u.  e.t.6.6.1.N                     X       X   % S E . V E v 1 M ` ` ` ` ` ` ` ` ` ` ` p o N 1.6.6.t.e.  u.u.u.u.u.u.",
"u.u.u.u.u.  >.6.6.6.1.N     1 t t y y y t t t t y t 8 o - S E . V E v q ` ` ` ` ` ` ` ` ` ` ` ` ( @ N 1.6.6.6.>.  u.u.u.u.u.u.",
"u.u.u.u.u.  >.6.6.6.1.N     t y p p p p p p m y y y y 5 $ S E X V G v q ` ` ` ` ` ` ` ` ` ` ` ` ( @ N 1.6.6.6.>.  u.u.u.u.u.u.",
"u.u.u.u.u.  >.6.6.6.1.N     5 y y y p p p p p y p p t 1 $ S E . V E v 6 I ` ` ` ` ` ` ` ` ` ` ( s + N 1.6.6.6.=.  u.u.u.u.u.u.",
"u.u.u.u.u.  O.4.6.4.$.N     o 1 > 1 1 1 1 1 1 1 1 1 : X % S E X V E v @ 3 0 0 q q q q q q q q q , + N $.4.6.4.O.  u.u.u.u.u.u.",
"u.u.u.u.u.  s T R Y M 7 X 1 0 0 q q q q q 7 q q q q 6 : % S E X V G v                               r M T R T s   u.u.u.u.u.u.",
"u.u.u.u.u.  6 e e e 0 , o d ( ' ` ` ` ` ` ` ` ` ` ` I 7 - S E X x E v X : : : : o > : : : > > o     1 6 e e e 0   u.u.u.u.u.u.",
"u.u.u.u.u.  X.5.6.2.$.N @ ( ` ` ` ` ` ` ` ` ` ` ` ` ` n % S E . b E v : 8 t M t y y p p u y y 5     N #.4.6.4.X.  u.u.u.u.u.u.",
"u.u.u.u.u.  ;.6.6.6.1.N @ ( ` ` ` ` ` ` ` ` ` ` ` ` ` e % S E X x E v 1 y u t u M p p p y y y t     N 1.6.6.6.;.  u.u.u.u.u.u.",
"u.u.u.u.u.  e.t.6.6.1.g X p ( ` ` ` ` ` ` ` ` ` ` ` P 5 % S E . x E c : 7 y M m y y p p p m t 5     N 1.6.6.t.e.  u.u.u.u.u.u.",
"u.u.u.u.u.  e.t.6.6.1.N   o @ @ @ @ @ @ @ @ @ @ @ @ o X $ S E . x E v   X X o X X o X o X o X X X   N 1.6.6.t.e.  u.u.u.u.u.u.",
"u.u.u.u.u.  <.q.6.6.1.g X 7 J J J J J J J J J J J J n 3 # C E X x F v 1 m m J J J J J J M m J J J X N 1.6.6.q.<.  u.u.u.u.u.u.",
"u.u.u.u.u.  7.r.6.6.1.N   > 3 3 n I ` ` ` ` ` ` ` ` ~ M 1 $ c l # c n n ( ` ` ` ` ` ` ` I n 4 q 9 . N 1.6.6.r.7.  u.u.u.u.u.u.",
"u.u.u.u.u.  3.r.6.6.1.N . ; b c 4 m ` ` ` ` ` ` ` ` ` Y m 1 X j . : n M ` ` ` ` ` ` ` ( m 4 c b ; . N 1.6.6.r.3.  u.u.u.u.u.u.",
"u.u.u.u.u.  ;.6.6.6.:.N . C F C % e ` ` ` ` ` ` ` ` ` ` ~ m   z . n ~ ` ` ` ` ` ` ` ` ` n # C D C . N 1.6.6.6.;.  u.u.u.u.u.u.",
"u.u.u.u.u.  >.6.6.6.1.N . & x l * n ` ` ` ` ` ` ` ~ ` ` T L . Z O m ` ` ` ` ` ` ` ` ` ` n * l x l . N 1.6.6.6.;.  u.u.u.u.u.u.",
"u.u.u.u.u.  =.6.6.6.&.N         5 m P U U U U U U U U U J 7 . Z O n U U U U U U U U U U m 5         N *.5.q.5.=.  u.u.u.u.u.u.",
"u.u.u.u.u.  _ ,.4.:.| g       X X   X X   X   X   X X X   X   Z O X .   X X X X X X X X X X X X     M | :.4.2._   u.u.u.u.u.u.",
"u.u.u.u.u.  X + X o X X X 5 y y y y p p y y y y y y y r 1   . k # 7 M T T T T T T T T T T T ` Y y X X X o + X X   u.u.u.u.u.u.",
"u.u.u.u.u.  ~ @.;.@._ d X y p y p p p p y y d y y d y y 5   . C O m ` ` ` ` ` ` ` ` ` ` ` ` ` ` ~ @ d _ O.;.@.(   u.u.u.u.u.u.",
"u.u.u.u.u.  %.6.6.4.&.N X 7 y p p p u p p p y y y y y t 1     z . m ` ` ` ` ` ` ` ` ` ` ` ` ` ` ` @ N &.5.6.6.@.  u.u.u.u.u.u.",
"u.u.u.u.u.  7.q.6.6.1.N X o > , 1 > : 1 : , : , : 1 1 : o   . x # n Y ` ` ` ` ` ` ` ` ` ` ` ` ` M X N 1.6.6.r.7.  u.u.u.u.u.u.",
"u.u.u.u.u.  e.t.6.6.1.g                           X           x . : 7 n 8 n 7 n n 4 n 4 8 q q q 5 X N 1.6.6.t.e.  u.u.u.u.u.u.",
"u.u.u.u.u.  7.t.6.6.2.g   > 3 9 3 3 3 9 9 9 3 9 3 3 9 4 3 >   k .                           X       N 1.6.6.r.7.  u.u.u.u.u.u.",
"u.u.u.u.u.  %.5.6.5.*.f o d ( ( ` ` ` ` ` ` ` ` ` ` ` ` Y i . h .     o   : : : o : o o : : : o     N &.5.6.6.%.  u.u.u.u.u.u.",
"u.u.u.u.u.  _ 2.5.1.| g @ ( ( ( ` ` ` ` ` ` ` ` ` ` ` ` ` J   h .   5 n M u t t p y y m p p y t     N | 1.2.2.[   u.u.u.u.u.u.",
"u.u.u.u.u.  Q { { { f f X p ( ( ` T T ` T ` T T ` ` T ` I 8 . h .   : n t M M u y p y p p y t 1     u / / { / Q   u.u.u.u.u.u.",
"u.u.u.u.u.  X o o o X X   X X o + + + o o + + + X o + + + X   . .               X X X X X X X X     X o X o o o   u.u.u.u.u.u.",
"u.u.u.u.u.                                                                                                        u.u.u.u.u.u."
};
