/* XPM */
static char *_e63dd1fa29446778b82b2921e3bffd5K1wimx5Pk9OcdNQw[] = {
/* columns rows colors chars-per-pixel */
"60 60 214 2 ",
"   c None",
".  c #3F3952",
"X  c #423C54",
"o  c #4C3C52",
"O  c #443F58",
"+  c #543C53",
"@  c #5C3A52",
"#  c #593D4F",
"$  c #663D4F",
"%  c #6A3B52",
"&  c #793B53",
"*  c #3A435B",
"=  c #3C495F",
"-  c #374B62",
";  c #3D4B61",
":  c #34546A",
">  c #345B6D",
",  c #395C6A",
"<  c #365267",
"1  c #305D71",
"2  c #3B606C",
"3  c #2F6B7B",
"4  c #2E6578",
"5  c #346272",
"6  c #2E717F",
"7  c #4B4257",
"8  c #44435B",
"9  c #4A445B",
"0  c #4E495F",
"q  c #5C4352",
"w  c #5E4A55",
"e  c #57485A",
"r  c #5D545E",
"t  c #68444F",
"y  c #6C4A53",
"u  c #634D5B",
"i  c #66475C",
"p  c #764554",
"a  c #61545D",
"s  c #6C505C",
"d  c #775A5A",
"f  c #7E464D",
"g  c #7C605D",
"h  c #424D62",
"j  c #4C4C63",
"k  c #544D62",
"l  c #594C61",
"z  c #4E536A",
"x  c #4F5066",
"c  c #515166",
"v  c #53556B",
"b  c #5B556A",
"n  c #5B5A6E",
"m  c #58556A",
"M  c #545B72",
"N  c #5C5D71",
"B  c #684D62",
"V  c #7B4E62",
"C  c #6B5B65",
"Z  c #635868",
"A  c #755A65",
"S  c #625E72",
"D  c #5B6479",
"F  c #5B6478",
"G  c #72646C",
"H  c #796A6B",
"J  c #636275",
"K  c #646B7D",
"L  c #6A6879",
"P  c #766A73",
"I  c #7B7477",
"U  c #6D646B",
"Y  c #8A3F4F",
"T  c #863D52",
"R  c #993E51",
"E  c #A43E52",
"W  c #8E424E",
"Q  c #94414E",
"!  c #95534F",
"~  c #894753",
"^  c #934252",
"/  c #8C5357",
"(  c #925658",
")  c #955855",
"_  c #8D514F",
"`  c #A3424E",
"'  c #BB464D",
"]  c #B7494E",
"[  c #AA4251",
"{  c #B54C50",
"}  c #AB5959",
"|  c #BC5655",
" . c #8B675C",
".. c #A26558",
"X. c #B86458",
"o. c #A1725F",
"O. c #835463",
"+. c #8C6365",
"@. c #936E68",
"#. c #87786D",
"$. c #9B7768",
"%. c #83747B",
"&. c #88787A",
"*. c #997C7C",
"=. c #A57865",
"-. c #AD726C",
";. c #CB4C4D",
":. c #DA4C4C",
">. c #DE534E",
",. c #D7524E",
"<. c #CB4851",
"1. c #D14C51",
"2. c #CC5551",
"3. c #DC5951",
"4. c #E35D53",
"5. c #C76859",
"6. c #D56E5E",
"7. c #D86559",
"8. c #CC7657",
"9. c #E56356",
"0. c #E96B5A",
"q. c #ED745E",
"w. c #DB7563",
"e. c #CC7869",
"r. c #EE7760",
"t. c #ED7A62",
"y. c #E57864",
"u. c #F07A61",
"i. c #F07760",
"p. c #E06D61",
"a. c #98816E",
"s. c #9B8A75",
"d. c #9A8A76",
"f. c #A9856B",
"g. c #A88B75",
"h. c #A8967C",
"j. c #B39979",
"k. c #B48466",
"l. c #D7815B",
"z. c #EA8C5D",
"x. c #C48F6A",
"c. c #CC956B",
"v. c #D6996B",
"b. c #D98676",
"n. c #CA9A71",
"m. c #F28568",
"M. c #EC8E6A",
"N. c #DBAB75",
"B. c #DEA16D",
"V. c #E4A06C",
"C. c #F3AB6E",
"Z. c #E2AB74",
"A. c #EDB577",
"S. c #F2BB7A",
"D. c #2D7C86",
"F. c #2B7683",
"G. c #5C6B81",
"H. c #666E81",
"J. c #667183",
"K. c #6B7484",
"L. c #6A798C",
"P. c #687789",
"I. c #737C8C",
"U. c #7A7884",
"Y. c #877D87",
"T. c #917D80",
"R. c #2C828B",
"E. c #318187",
"W. c #318589",
"Q. c #358A8A",
"!. c #788594",
"~. c #728393",
"^. c #7C96A7",
"/. c #86808F",
"(. c #9D8988",
"). c #828593",
"_. c #8D8D9B",
"`. c #95929E",
"'. c #86929E",
"]. c #B69888",
"[. c #B89C93",
"{. c #AC938D",
"}. c #BBA795",
"|. c #839DAC",
" X c #8098A6",
".X c #9996A2",
"XX c #8DA9B5",
"oX c #89A5B2",
"OX c #92ACB6",
"+X c #94A7B2",
"@X c #BEA9A1",
"#X c #DA9887",
"$X c #C29A8E",
"%X c #EA9B85",
"&X c #CDB98B",
"*X c #D9BD89",
"=X c #C5A396",
"-X c #CEA99A",
";X c #D2B09F",
":X c #EBA18B",
">X c #ECA993",
",X c #EDB09A",
"<X c #DCBCA9",
"1X c #C8AFA2",
"2X c #E6B5A0",
"3X c #E8BBA6",
"4X c #DEC38D",
"5X c #E5C88F",
"6X c #E1CF97",
"7X c #E9D599",
"8X c #DDC2B0",
"9X c #EBC2AC",
"0X c #ECC8B2",
"qX c #A9B9C0",
/* pixels */
"                                                                                                                        ",
"                                                                                                                        ",
"                    . . . . .       . X X . . . .   . . .                                                               ",
"                  # q t w u q     q w w r a a r a r r a a r                                                             ",
"                  ~ ! ..o.o. .y e d o.f.a.a.a.a.s.I #.d.s.g                                                             ",
"                t ! 5.l.V.v.k.d q  .V.N.j.f.g.j.4Xd.h.4X*Xa.7                                                           ",
"                y ..8.z.C.A.c.$. .f.S.Z.f.g d a.4Xh.}.6X7Xd.e                                                           ",
"                y ..8.z.C.S.V.c.x.N.S.A.c.o. .x.4X4X5X7X6Xs.7                                                           ",
"                t _ X.l.v.N.v.v.v.N.N.Z.n.k.f.n.4X&X4X4X&X#.7                                                           ",
"                q y ) ..=.f.f.=.f.g.f.g.g.f.f.f.h.j.h.h.h.H r                                                           ",
"                j l u s C U G G H U C I I I P G d.a.L P I U.L                                                           ",
"              8 z M z j z M D H.K F c K.~.I.H.b ~.!.K J Y..XY.m                                                         ",
"              8 j c l l l Z S L L N c L I.U.L Z U.U.J Z U.Y.L k                                                         ",
"              X o @ p Y T ~ ~ / / C Z &.T.T.&.&.&.P A V O.s O X                                                         ",
"              . + & R E ' <.' | -.*.d.[.=X=X=X=X$X(.*.-.} p o X                                                         ",
"                @ Y ] :.:.>.3.p.b.-X1X<X3X2X2X2X2X-X-X#Xe.~ o                                                           ",
"                $ W ' :.>.4.0.y.%X9X0X9X,X%X#X#X>X2X3X>Xe.( +                                                           ",
"                $ R ' >.4.q.u.m.%X,X,X>XM.6.X.X.w.%X>X:Xb.( o                                                           ",
"                $ T ' >.9.i.i.i.u.u.u.m.w.} y y 5.y.u.t.w.( o                                                           ",
"                @ & E 1.4.q.r.i.u.u.u.m.t.6.` / 5.y.u.r.6.( o                                                           ",
"                o @ T ' 3.9.9.q.u.u.u.u.u.t.y.e.y.r.r.r.6.( o                                                           ",
"                X o @ Y ] ,.4.0.u.u.i.i.u.m.m.m.t.r.r.r.6.( +                                                           ",
"m v v         b Z B e % R ' 2.7.i.q.i.i.u.i.u.u.u.u.r.q.6./ o                                                           ",
"OX+X~.F     %.[.=X[.-.p T T ^ | 4.4.i.i.i.i.i.i.u.q.r.0.7./ o 7                                                         ",
"OXXXL.N 8 8 %.@X<X;X(.A + @ & ] >.4.q.9.4.4.i.i.0.9.9.4.2.~ H T.P                                                       ",
"OXoXL.M 8 7 %.@X<X<X$X@.B + % R [ { 3.>.4.>.4.4.,.{ { ;.;.~ %.(.P                                                       ",
"XX|.L.M 8 O %.[.}.[.(.-.O.s $ % & ^ 1.:.' E :.:.<.W ^ [ ` p %.(.P                                                       ",
"XX^.L.M O O U Y.&.H A @.+.s + o @ % E E Y R E E R & & & & + A %.Z 7   J L                                               ",
"oX|.P.v O X e n m c l C A Z k 0 k B V V B B O.O.V B l i e j b Z 0 9 J '.+XL 7 .                                         ",
"oX|.L.v X X 8 v M D K K.K.K.L.I.I.)._.)._..X.X.XI.U.K.K.H.H.D v O j K +X@XH.7 .                                         ",
"XX|.L.z X X 8 x M D K J.J.K.I.I.!.)._.)._..X.X.X).I.L.J.J.J.D M 8 8 D ^.OXG.8 X                                         ",
"XX|.L.v X . O h h x x x c v v m m n S n S S S S n v v v x k j h O * M L.!.N 8 .                                         ",
"XX|.L.M 8         8 8 * ; h h h ; h h h h h h h h h h h ; O O       j M D v                                             ",
"XX|.P.M           . * < > 1 5 1 5 5 5 5 5 5 5 5 5 5 5 > < * .                                                           ",
"XX^.P.M             - 5 F.D.D.D.D.W.W.Q.Q.E.D.W.W.D.D.D.4 < X                                                           ",
"|.^.P.M             > 3 R.R.R.D.D.W.Q.Q.Q.W.E.Q.Q.E.D.F.F.> .                                                           ",
"!.~.G.z             : F.R.F.F.1 , , , 2 2 , , , 2 , , > 1 < *                                                           ",
"D G.M j             > 3 F.3 : -                     * * - *                                                             ",
"h j                 : 1 4 : -                         . .                                                               ",
"                    * < : -                                                                                             ",
"                    . . *                                                                                               ",
"                    . .                                                                                                 ",
"                    X .                                                                                                 ",
"                    . X                                                                                                 ",
"                                                                                                                        ",
"                                                                                                                        ",
"                                                                                                                        ",
"                                                                                                                        ",
"                                                                                                                        ",
"                                                                                                                        ",
"                                                                                                                        ",
"                                                                                                                        ",
"                                                                                                                        ",
"                                                                                                                        ",
"                                                                                                                        ",
"                                                                                                                        ",
"                                                                                                                        ",
"                                                                                                                        ",
"                                                                                                                        ",
"                                                                                                                        "
};
