/* XPM */
static char *_8cacba125ca4c7ac173daa031014c7doeNUDuKYkjUCsVDg[] = {
/* columns rows colors chars-per-pixel */
"63 63 8 1 ",
"  c #4F4C48",
". c #322320",
"X c #3E3936",
"o c #807B6A",
"O c #382B2F",
"+ c #4B3F38",
"@ c #28221F",
"# c #67625C",
/* pixels */
"                                                               ",
"                                                              .",
" Xo.                                                     Xo.   ",
" X..                                                     X..O .",
" XXO                                                     XXOO  ",
"  OO                                                     +OO  .",
"  O                                                       +O  .",
"       @@....XXX.X.XXXXXXXXXXXX.....X.XXXXXXXXXX.X.X...   O+  .",
"       @X                      + +++ + +                  +O  .",
"       .                        + +++                 #   ++  .",
"       .                         + + +     X               +  .",
"       X                          +++   X X           #   +   X",
"       X                           + + X X            #    +  .",
"       .              X           + + X X             #   +   X",
"       X             X             + X                #    +  X",
"       X            X#            +                   o       X",
"       X           X             +                    o    +  .",
"       X                                              o       X",
"       X         X                  X                 o       .",
"       X        X#               X X                  o       .",
"       X       Xo               X X                   o       .",
"       X      Xo               XXX                    o       .",
"       .     Xo               X +                     o       .",
"       X    X#                 +++                    o       .",
"       .                      + +                     o       .",
"       .                       +                      o       .",
"       .                                              o       X",
"       .                                              o       .",
"       .                                              #       X",
"       .+                                             o       .",
"       X                                              #       X",
"       .+                                             #       X",
"       X                                              #       X",
"       .+ +  X X                                      #       X",
"       X +  X X                                       #       X",
"       X++ X X                                        #       X",
"     + X+ X                                           #       X",
"    + +X++                                            #       X",
"   + ++X+ +                                           #       X",
"  + +  X++                                            #       X",
"       .+                   X#                        #       X",
"       X           X#      Xo                         #       X",
"       .          X#       #                          #       X",
"       X          #      X                            #       X",
"       .         #    X X                             #       X",
"       .             X#X X#                           #       X",
"       .            XoX Xo                            #       X",
"       .           Xo  X#                             #       X",
"       .          Xo  X                               o       .",
"       .         X#          X                        #       X",
"       .        X#          X#                        o       .",
"       .                   X#                         #       X",
"       .                                              o       .",
"       .                                              o       .",
"       .                                              o       .",
"        ####oooooooooooo#o#ooooooooooooooooooo#o#oooooo       .",
"                                                              .",
"                                                              .",
" Xo.                                                     Xo.  .",
" X..                                                     X..  .",
" XX                                                      XXO  .",
"                                                          OO  .",
"XXXXXXXXXXXXXXXXXXXXXXXXXXXXXXXXXXXXXXXXXXXXXXXXXXXX.X.X..@@..."
};
