/* XPM */
static char *_05d700bb2f24806aa2c65e4ae78ae25P3nLcGSKYpQuePud[] = {
/* columns rows colors chars-per-pixel */
"63 63 18 1 ",
"  c #402515",
". c #372111",
"X c #2E1B0E",
"o c #3F2A17",
"O c #353934",
"+ c #231A15",
"@ c #6A5E4E",
"# c #86785B",
"$ c #4F463B",
"% c #7E7050",
"& c #281305",
"* c #A09669",
"= c #A9A27E",
"- c #696654",
"; c #7A6B56",
": c #5D5445",
"> c #9C977E",
", c #3C2410",
/* pixels */
"  .   X . .  .. XX   .       XoX  ..X.O+. .  .. XX   .       Xo",
". .o   . .o    XX.o . .o.   ..  . ..O@+. .o     . o . .o.   .. ",
" .X ..X..     X@#$.. .X.. Xo     .X.$+. .          . .X.. XoO+ ",
"    XO+. o  .X%$@OX     o .. o       .  O+  .   . X     o  .+X ",
"XXo..+. .    X$@O+X .o ..$O..     o..   +X    o.    .o .    .  ",
"@OX. . . .X. .X$+&.  ..O+O&X .X  XX.   . .   .  .    .X    . .X",
"$+. .o.X*%$.X . &X. . .+..X.   o  . .o. .  o. .   X .     .    ",
".X .  X=%@-#O.     ...  o.X.     . .   X  .. X.    ...  o.X.   ",
"  .   X%%@$-$.oX. .o.     .   X   .   .   ... oX .Xo.     .   X",
" .o. X@-@$$O&.X#$. ..  X .. o. X .o.   X   .     @OX.  X .. o. ",
".o.  XO@$-O&XXXO+..     . .  X  .o.    o  .o..X.X$+.    . .  X ",
"     X+-@$+X.  .. .  .o .      .         ...XO+...X  .o .      ",
" o   .+$O+&. o.           .X  .  o   X  .X...+.               .",
".X   .X&+.    . .   X   X @OX.  .X   o . o   .. .   X   X   .. ",
"   .. ...      .  o  .  .o$+..     .. .        .  o  O+ .o.  o ",
"  o      X    X . X .o.  ..X.X.o  X.     X    X . X .+X$O. . . ",
" . X     o   .  o  .    ....%@+. XO+.    o   .  o  .   O&.     ",
"X oX   X.   . o .o.  . . .X%@;X . +.   X.   . o .o...X.. ...   ",
" . o. o.   .     ...   X.X#@-$+X . o. o.   .     ..X@#$.  . o  ",
" .    ..  .  . .. . .   X=--:O&. .    ..  .  . .. X$@O+@O.  X .",
"  o  . . .     . .o    X+;::@O+X  o  . . .     . .oX$+&$+Xo.   ",
" . X. ...  o  o X   . o.#@:$:+XX.. X.X...  o  o X   .&X    ..  ",
"   . ..o  . X..        X-:$:O+@O.X..O+.o  . X..        .  .   .",
"  ..o ..       .  .X   XO$O&+&$+X%@#+...       .  o    . . .o. ",
".  .    .   .    .O+X .X..XXX..&.$@O.   .   .    .  . .X. ...X ",
"o .XX .   .      o+X . ..$OX.X. X$++..X   .      o.  . ...o.   ",
" XX%$X o  X  .o   . oX. .O&   . X.X&XO+o  X  .o     oX. . .   .",
" X@$@$.  o. .        o   X  o  X$O  .+.  o. .        o   X  o  ",
" X#@O+& .. .  .o   .. . .  . . .O&.. .  .. .  .o   .. . .  . . ",
"..$O+&X   .      .o .  X.       .   o     .      .o .  X.      ",
" ...X..  X  o X .    ..X..   .   . .     X  o X .    . o     . ",
"   . o     .   .    . X@O.   . o   . o     .   .    .  Xo    . ",
"  .   X . .  .. XX   ..$+.   XoX  .   X . .  .. XX   .       Xo",
". .o   . .o     . o . ...   ..  . .o   . .o     . o . .o.   .. ",
"..X. .o .          . .X.. Xo     .X  .o .          . .X.. Xo   ",
"XO+. .   o  .   . X     o  . o       .   o  .   . X   .X.  . o ",
".+...   .   .Xo.    .o .    .     o..   .    X..    .o.O@.  .  ",
" .X.   . .  @OX .    .X    . .X  XX.   . .  X$O .    ..$+  .X.X",
"  . .o. .  o$+.   X .     . XX o  . .o. .  o.O&.  X .   . .@OX ",
" . .   X  ...X     ...  o.XX%$X  . .   X  .. .     ...X...X$+. ",
"  .   .   ... oX  .o.     X@$@$   .   .  X.XX@+X  .o.X%@#X..X X",
" .o.   X   .     . ..  X .X#@O+& .o.   X.O+X>:$ X. ...$@O.. o. ",
".o.    o  .o.X  X .     . .$O+&X.o.    o.+X+-@:X. .  X$++&.  X ",
"         ....     .  .o .  . X..         .X-:$@&X .  .oX&.     ",
" o   X  .X.. o.               .X.o   X  .X.$@:OX@O      .     .",
".X   o . o    . .   X   X   ..X@O.   o . o +$O+&$+  X   X   .. ",
"   .. .        .  o  .  .o.  o.$+X .. .    XX+&O+ o  .  .o.  o ",
"  o      X    X . X .o.  . . .,.& o      X  ..X+X X .o.  . . . ",
" . X     o   .  o  .    ..       . X     o   .  o  .    ..     ",
"X oX   X. XX. o .o.  .   ...    X oX   X.   . o .o.  .   ...   ",
" . o. o. X@#$.   ...   X  . o  . . o. o.   .     ...   X  . o  ",
" .    ..X%$@O.... . .   X.  X .X .    ..  .  .... . .   X.  X .",
"  o  . .X$@O+X . .o     .Xo.      o  . . .     ..Xo     .Xo.   ",
" . X. ...X$+&.oO+   . o    O@  X . X. ...  o  o $OX . o    ..  ",
"   . ..o  .&X..+.      .  .$+ .    . ..o  . X.. O&. .X .  .   .",
"  ..o ..   X@O..  o    .$O X...   ..o ..       ..Xo @OX. . .o. ",
".  .    .  .$+X  .  . .XO&X%@#X..  .$O  .   .    .  $+.X. ...X ",
"o .   .   .      o.  . ....$@O. o . O&X.  .      o...X ...o.   ",
"O+o.   o  X  .o     oX. . X$++&  Xo.X@#$. X  .o     oX. . .   .",
"+.  . .  o. .        o   X  X&.    X%$@O o. .        o   X  o  ",
" o . .  .. .  .o   .. . .  . .   o X$@O+X. .  .o   .. . .  . . ",
".   o     .      .o .  X.       .   X$+&. .      .o .  X.      ",
" . .     X  o X .    . o     .   . .  &X.X  o X .    . o     . "
};
