/* XPM */
static char *_fed27ef4480497b8b23bf3a75e6eab8QbZUw6boyqLrLA98[] = {
/* columns rows colors chars-per-pixel */
"63 63 192 2 ",
"   c None",
".  c #000000",
"X  c #0B0501",
"o  c #070D00",
"O  c #090909",
"+  c #0E0807",
"@  c #140801",
"#  c #1C0B01",
"$  c #160B07",
"%  c #091100",
"&  c #0C1800",
"*  c #181309",
"=  c #131313",
"-  c #1A1A1A",
";  c #240E00",
":  c #220C09",
">  c #2B1000",
",  c #2E1D0F",
"<  c #251504",
"1  c #321300",
"2  c #3C1A00",
"3  c #38140F",
"4  c #331909",
"5  c #3B1B0B",
"6  c #201210",
"7  c #281B18",
"8  c #301714",
"9  c #0B2A00",
"0  c #152A00",
"q  c #1D3A00",
"w  c #163A00",
"e  c #322600",
"r  c #323500",
"t  c #2E211A",
"y  c #35251A",
"u  c #3C3F11",
"i  c #27390C",
"p  c #212121",
"a  c #2B2B2B",
"s  c #382A22",
"d  c #362927",
"f  c #273422",
"g  c #393428",
"h  c #333333",
"j  c #3C3C3C",
"k  c #3B3634",
"l  c #4A1A15",
"z  c #442100",
"x  c #4C2600",
"c  c #562C05",
"v  c #4F300F",
"b  c #5E3200",
"n  c #432818",
"m  c #4B2210",
"M  c #593E1A",
"N  c #663900",
"B  c #6F3F00",
"V  c #67380B",
"C  c #6F271F",
"Z  c #703B1B",
"A  c #4B3822",
"S  c #523D22",
"D  c #453937",
"F  c #4A3D3B",
"G  c #5E3530",
"H  c #513E32",
"J  c #442622",
"K  c #71312A",
"L  c #1F4800",
"P  c #234700",
"I  c #234A02",
"U  c #2C430C",
"Y  c #2A5400",
"T  c #2D5607",
"R  c #335907",
"E  c #324118",
"W  c #385314",
"Q  c #316300",
"!  c #386A03",
"~  c #3E7107",
"^  c #374D22",
"/  c #3A4233",
"(  c #545B11",
")  c #5D4C1B",
"_  c #4D7B0F",
"`  c #45770B",
"'  c #546E11",
"]  c #517419",
"[  c #42502C",
"{  c #484637",
"}  c #6F483F",
"|  c #506F27",
" . c #5A7233",
".. c #4B622C",
"X. c #7B6E30",
"o. c #776630",
"O. c #444444",
"+. c #4A4A4A",
"@. c #5D5242",
"#. c gray35",
"$. c #555755",
"%. c #544D48",
"&. c #664945",
"*. c #7D4A43",
"=. c #675553",
"-. c #675A52",
";. c #655348",
":. c #616161",
">. c #6B6B6B",
",. c #7A7A7A",
"<. c #796E67",
"1. c #822E24",
"2. c #8D382D",
"3. c #825025",
"4. c #9C443A",
"5. c #8A443C",
"6. c #817E26",
"7. c #A9633E",
"8. c #944F40",
"9. c #9F5950",
"0. c #955548",
"q. c #A94F45",
"w. c #A44B40",
"e. c #A1574E",
"r. c #A25A51",
"t. c #AA5F56",
"y. c #846053",
"u. c #847058",
"i. c #A66057",
"p. c #8A726F",
"a. c #96736F",
"s. c #877E79",
"d. c #897775",
"f. c #AE6B63",
"g. c #BE6A60",
"h. c #B27068",
"j. c #A37A75",
"k. c #C4665A",
"l. c #C97564",
"z. c #D17165",
"x. c #D67569",
"c. c #DE7C70",
"v. c #538811",
"b. c #588519",
"n. c #5F9517",
"m. c #679E1B",
"M. c #6AA11D",
"N. c #6F9F22",
"B. c #63862D",
"V. c #75A222",
"C. c #74AC22",
"Z. c #78A82A",
"A. c #7CB526",
"S. c #81BA28",
"D. c #8EB132",
"F. c #91BC3E",
"G. c #85AC2E",
"H. c #9F9C6F",
"J. c #B2B179",
"K. c #C3847D",
"L. c #E1877C",
"P. c #B8C073",
"I. c #848484",
"U. c #8B8B8B",
"Y. c #929292",
"T. c #9A9A99",
"R. c #999594",
"E. c #A98B88",
"W. c #B89995",
"Q. c #A9A9A9",
"!. c #A2A2A2",
"~. c #B6B7B7",
"^. c #CB8A82",
"/. c #C09691",
"(. c #DA9187",
"). c #E38E84",
"_. c #E69C93",
"`. c #E49389",
"'. c #E9A79F",
"]. c #D6ADA6",
"[. c #ECB2AB",
"{. c #E1B1AB",
"}. c #EEBCB6",
"|. c #E3ADA6",
" X c #E3C5AF",
".X c #C5C6C6",
"XX c #D8D8D8",
"oX c #F1C7C2",
"OX c #DFE0E0",
"+X c #FEFFFF",
"@X c #F5F6F6",
"#X c #E9EAEA",
/* pixels */
"                                                                                                                              ",
"                                                                                                                              ",
"                                                                . . . . . . .                                                 ",
"                                                          . . . . . . . . . .                                                 ",
"                                                        . . . . . . . . . . .                                                 ",
"                                                        . . . . . : : : . . .                                                 ",
"                                                        . . . . . C 1.1..                                                     ",
"                                                        . . . : C k.z.z..                                                     ",
"                                                        X 3 $ 8 q.x.c.c..                                                     ",
"                                                          1.3 J c.c.c.c.                                                      ",
"                                            . . . . N.S.S.1.1.4.c.c.c.c.Q Q Q                                                 ",
"                                          1.l : . . U ] S.X.3.2.q.q.5.G 0 I Q Q l.                                            ",
"                                          1.r.&.d . . i n.b.) K t.r.*.F D E P P y.t.                                          ",
"                                          1.oXoXE.. . . . . . D oXoXoXoXoX=.. . . G c.                                        ",
"                                      1.f.{.oXoX|.g.6 . . N.N.Z.F. XoX XoX=.& T T o.c.                                        ",
"                                      1.h.oXoXoX[.c.6 % 0 S.S.S.S.P.J.H.p.{ q Q Q X.c.                                        ",
"                                      1.h.oXoXoX[.c.* 0 Q S.S.S.S.S.n.Q . q Q Q Q X.c..                                       ",
"                                    1.z._.oXoXoXE.. . . . Q n.S.S.S.] . . . . . . . . c.G .                 Q..X+X            ",
"                                    1.z._.oXoXE.F . # g :.^ .. . . .[ p :.:.:.:.:.:.:./.,.>.Q.!.Q.Q.Q.Q.Q.Q.XX#X+XQ.          ",
"                                    4.x.`.[.[.&.. . , =.Q.j h a a a h j U.U.I.,.!.Y.,.Q.U.I.Q.H.U.Q.Q.~..X.X@XOX~.Q.          ",
"                                1.4.c.c.c.c.c.G . . h >.Q.j - . . . - j j j a . Y.:.. Q.+.a Q.- +.Q.Q.XX+X+X+XU.. Q.          ",
"                                1.e.}.}.a.* 6 + . . h >.Q.T.R.Y.Y.Y.>.j j j a . O.a . +.p - +.O p +.+.$.#.#.Q.>.. +.          ",
"                                i.^.oXoXW.=.G 7 . . d %.,.,.,.,.,.,.:.j >.>.:.+.>.#.+.>.g 6 S : , S s A S s u.@.- j           ",
"                              1.K.oXoXoXoXoXc.G . . > y j j j j j j j j Q.Q.Q.Q.!.Q.Q.Q.;.z B 2 x B 1 c N 1 N M j j           ",
"                              1.K.oXoXoXoXoXc.c.^.Q.Q.:.. c.'.oXoXL.8.1 B S j j j j j j y z B 2 y.oXc.'.].1 N B               ",
"                              1.e.h.h.h.K._.c.^.W.Q.$.&.*.c.)._._.7.Z 1 B v t - - a j j 7 ; x ; } _.c.).(.8.c x               ",
"                              1.1.1.1.1.w.k.k.j.U.U.= J 9.c.c.z.9.V z ; b 2 # . . - j j - + 1 . G c.c.c.c.c.m                 ",
"                                          1.1.G j j O . . c.c.9.. > # . 1 @ . .                                               ",
"                                              5 4 4 > > > D.D.G.N.V.V.N.X X                                                   ",
"                                              1 1 1 1 e r n.C.S.S.S.C.n.0 q                                                   ",
"                                              1 1 1 1 r Q Q n.A.S.S.n.Q Q Q Q                                                 ",
"                                              9 w Q C.S.S.Q Q Q Q Q Q Q S.A.S.S.                                              ",
"                                              9 I n.A.S.S.n.` Q Q Q Q Q S.S.S.S.S.                                            ",
"                                              9 T S.S.S.S.S.v.R I I Y Q M.C.S.S.S.C.                                          ",
"                                              9 T S.S.S.S.S.v.I . . 0 Q Q n.S.S.S.n.Q                                         ",
"                                            9 L ` S.S.S.S.S.W %   . . o Q ! v.S.S.n.Q                                         ",
"                                            9 I ~ n.A.S.S.n.W       . . q Y ~ n.B.| W                                         ",
"                                            9 I Q Q C.A.S.Q           . . q Q Q / j j                                         ",
"                                            9 f j j j ^ Q .             . . = j T.Q.Q.1                                       ",
"                                            f #.,.,.+.g r                 . + y R.Q.Q.1                                       ",
"                                            j ,.Q.Q.{ y 1                 . X ; <.s.s.e                                       ",
"                                          . D ,.Q.Q.n 1 1                 . . . > 1 1 Q                                       ",
"                                      . 0 Y R E n n 1 1                   . & Y T _ V.Q Q Q                                   ",
"                                      . 0 Q v.' ( ( < #                   . % q _ M.S.v.R q                                   ",
"                                      . 0 Q S.S.S.S.& .                   . . . N.S.S.S.W .                                   ",
"                                      . . . Q n.N.Q % .                       . . . . . . .                                   ",
"                                    . . . . 0 U U 0 o                         . . . . . . .                                   ",
"                                    . . X O X . . .                           . . X O O O .                                   ",
"                                    . > y j 1 @ .                             . > y j j - .                                   ",
"                                    . d j j 1 @ .                               X - j j - .                                   ",
"                                  X @ h k s # @                                 . * s j - .                                   ",
"                                . X 1 k s 1 .                                   . @ 1 j - .                                   ",
"                                . = j j p .                                     . # 1 j - .                                   ",
"                                . O - - =                                         X @ y * . .                                 ",
"                                O O O . .                                           . 1 $ O O                                 ",
"                              . p j j O .                                           . 1 s j j 4 1                             ",
"                            . h >.T.T.Y.#..                                         . 1 1 H T.R.T.Q.1                         ",
"                            . p O.:.:.:.k .                                         . # # y :.:.:.:.#                         ",
"                            . . . . . . . .                                         . . . . . . . . .                         ",
"                                                                                                                              ",
"                                                                                                                              ",
"                                                                                                                              ",
"                                                                                                                              "
};
