/* XPM */
static char *result[] = {
/* columns rows colors chars-per-pixel */
"63 63 192 2 ",
"   c #000000",
".  c #0B0501",
"X  c #070D00",
"o  c #090909",
"O  c #0E0807",
"+  c #140801",
"@  c #1C0B01",
"#  c #160B07",
"$  c #091100",
"%  c #0C1800",
"&  c #181309",
"*  c #131313",
"=  c #1A1A1A",
"-  c #240E00",
";  c #220C09",
":  c #2B1000",
">  c #2E1D0F",
",  c #251504",
"<  c #321300",
"1  c #3C1A00",
"2  c #38140F",
"3  c #331909",
"4  c #3B1B0B",
"5  c #201210",
"6  c #281B18",
"7  c #301714",
"8  c #0B2A00",
"9  c #152A00",
"0  c #1D3A00",
"q  c #163A00",
"w  c #322600",
"e  c #323500",
"r  c #2E211A",
"t  c #35251A",
"y  c #3C3F11",
"u  c #27390C",
"i  c #212121",
"p  c #2B2B2B",
"a  c #382A22",
"s  c #362927",
"d  c #273422",
"f  c #393428",
"g  c #333333",
"h  c #3C3C3C",
"j  c #3B3634",
"k  c #4A1A15",
"l  c #442100",
"z  c #4C2600",
"x  c #562C05",
"c  c #4F300F",
"v  c #5E3200",
"b  c #432818",
"n  c #4B2210",
"m  c #593E1A",
"M  c #663900",
"N  c #6F3F00",
"B  c #67380B",
"V  c #6F271F",
"C  c #703B1B",
"Z  c #4B3822",
"A  c #523D22",
"S  c #453937",
"D  c #4A3D3B",
"F  c #5E3530",
"G  c #513E32",
"H  c #442622",
"J  c #71312A",
"K  c #1F4800",
"L  c #234700",
"P  c #234A02",
"I  c #2C430C",
"U  c #2A5400",
"Y  c #2D5607",
"T  c #335907",
"R  c #324118",
"E  c #385314",
"W  c #316300",
"Q  c #386A03",
"!  c #3E7107",
"~  c #374D22",
"^  c #3A4233",
"/  c #545B11",
"(  c #5D4C1B",
")  c #4D7B0F",
"_  c #45770B",
"`  c #546E11",
"'  c #517419",
"]  c #42502C",
"[  c #484637",
"{  c #6F483F",
"}  c #506F27",
"|  c #5A7233",
" . c #4B622C",
".. c #7B6E30",
"X. c #776630",
"o. c #444444",
"O. c #4A4A4A",
"+. c #5D5242",
"@. c gray35",
"#. c #555755",
"$. c #544D48",
"%. c #664945",
"&. c #7D4A43",
"*. c #675553",
"=. c #675A52",
"-. c #655348",
";. c #616161",
":. c #6B6B6B",
">. c #7A7A7A",
",. c #796E67",
"<. c #822E24",
"1. c #8D382D",
"2. c #825025",
"3. c #9C443A",
"4. c #8A443C",
"5. c #817E26",
"6. c #A9633E",
"7. c #944F40",
"8. c #9F5950",
"9. c #955548",
"0. c #A94F45",
"q. c #A44B40",
"w. c #A1574E",
"e. c #A25A51",
"r. c #AA5F56",
"t. c #846053",
"y. c #847058",
"u. c #A66057",
"i. c #8A726F",
"p. c #96736F",
"a. c #877E79",
"s. c #897775",
"d. c #AE6B63",
"f. c #BE6A60",
"g. c #B27068",
"h. c #A37A75",
"j. c #C4665A",
"k. c #C97564",
"l. c #D17165",
"z. c #D67569",
"x. c #DE7C70",
"c. c #538811",
"v. c #588519",
"b. c #5F9517",
"n. c #679E1B",
"m. c #6AA11D",
"M. c #6F9F22",
"N. c #63862D",
"B. c #75A222",
"V. c #74AC22",
"C. c #78A82A",
"Z. c #7CB526",
"A. c #81BA28",
"S. c #8EB132",
"D. c #91BC3E",
"F. c #85AC2E",
"G. c #9F9C6F",
"H. c #B2B179",
"J. c #C3847D",
"K. c #E1877C",
"L. c #B8C073",
"P. c #848484",
"I. c #8B8B8B",
"U. c #929292",
"Y. c #9A9A99",
"T. c #999594",
"R. c #A98B88",
"E. c #B89995",
"W. c #A9A9A9",
"Q. c #A2A2A2",
"!. c #B6B7B7",
"~. c #CB8A82",
"^. c #C09691",
"/. c #DA9187",
"(. c #E38E84",
"). c #E69C93",
"_. c #E49389",
"`. c #E9A79F",
"'. c #D6ADA6",
"]. c #ECB2AB",
"[. c #E1B1AB",
"{. c #EEBCB6",
"}. c #E3ADA6",
"|. c #E3C5AF",
" X c #C5C6C6",
".X c #D8D8D8",
"XX c #F1C7C2",
"oX c #DFE0E0",
"OX c #FEFFFF",
"+X c #F5F6F6",
"@X c #E9EAEA",
"#X c None",
/* pixels */
"#X#X#X#X#X#X#X#X#X#X#X#X#X#X#X#X#X#X#X#X#X#X#X#X#X#X#X#X#X#X#X#X#X#X#X#X#X#X#X#X#X#X#X#X#X#X#X#X#X#X#X#X#X#X#X#X#X#X#X#X#X#X#X",
"#X#X#X#X#X#X#X#X#X#X#X#X#X#X#X#X#X#X#X#X#X#X#X#X#X#X#X#X#X#X#X#X#X#X#X#X#X#X#X#X#X#X#X#X#X#X#X#X#X#X#X#X#X#X#X#X#X#X#X#X#X#X#X",
"#X#X#X#X#X#X#X#X#X#X#X#X#X#X#X#X#X#X#X#X#X#X#X#X              #X#X#X#X#X#X#X#X#X#X#X#X#X#X#X#X#X#X#X#X#X#X#X#X#X#X#X#X#X#X#X#X",
"#X#X#X#X#X#X#X#X#X#X#X#X#X#X#X#X#X#X#X#X#X#X#X#X                    #X#X#X#X#X#X#X#X#X#X#X#X#X#X#X#X#X#X#X#X#X#X#X#X#X#X#X#X#X",
"#X#X#X#X#X#X#X#X#X#X#X#X#X#X#X#X#X#X#X#X#X#X#X#X                      #X#X#X#X#X#X#X#X#X#X#X#X#X#X#X#X#X#X#X#X#X#X#X#X#X#X#X#X",
"#X#X#X#X#X#X#X#X#X#X#X#X#X#X#X#X#X#X#X#X#X#X#X#X      ; ; ;           #X#X#X#X#X#X#X#X#X#X#X#X#X#X#X#X#X#X#X#X#X#X#X#X#X#X#X#X",
"#X#X#X#X#X#X#X#X#X#X#X#X#X#X#X#X#X#X#X#X#X#X#X#X#X#X  <.<.V           #X#X#X#X#X#X#X#X#X#X#X#X#X#X#X#X#X#X#X#X#X#X#X#X#X#X#X#X",
"#X#X#X#X#X#X#X#X#X#X#X#X#X#X#X#X#X#X#X#X#X#X#X#X#X#X  l.l.j.V ;       #X#X#X#X#X#X#X#X#X#X#X#X#X#X#X#X#X#X#X#X#X#X#X#X#X#X#X#X",
"#X#X#X#X#X#X#X#X#X#X#X#X#X#X#X#X#X#X#X#X#X#X#X#X#X#X  x.x.z.0.7 # 2   #X#X#X#X#X#X#X#X#X#X#X#X#X#X#X#X#X#X#X#X#X#X#X#X#X#X#X#X",
"#X#X#X#X#X#X#X#X#X#X#X#X#X#X#X#X#X#X#X#X#X#X#X#X#X#X#Xx.x.x.x.H 2 <.#X#X#X#X#X#X#X#X#X#X#X#X#X#X#X#X#X#X#X#X#X#X#X#X#X#X#X#X#X",
"#X#X#X#X#X#X#X#X#X#X#X#X#X#X#X#X#X#X#X#X#X#X#X#XW W W x.x.x.x.3.<.<.A.A.M.        #X#X#X#X#X#X#X#X#X#X#X#X#X#X#X#X#X#X#X#X#X#X",
"#X#X#X#X#X#X#X#X#X#X#X#X#X#X#X#X#X#X#X#X#X#Xk.W W P 9 F 4.0.0.1.1.F.A.' I     ; k <.#X#X#X#X#X#X#X#X#X#X#X#X#X#X#X#X#X#X#X#X#X",
"#X#X#X#X#X#X#X#X#X#X#X#X#X#X#X#X#X#X#X#X#Xr.7.L L R S S &.e.e.J ( v.v.u     s %.e.<.#X#X#X#X#X#X#X#X#X#X#X#X#X#X#X#X#X#X#X#X#X",
"#X#X#X#X#X#X#X#X#X#X#X#X#X#X#X#X#X#X#X#Xx.F       =.XXXXXXXXXXS           . R.XXXX<.#X#X#X#X#X#X#X#X#X#X#X#X#X#X#X#X#X#X#X#X#X",
"#X#X#X#X#X#X#X#X#X#X#X#X#X#X#X#X#X#X#X#Xx.X.U U % *.XXXXXX|.D.C.M.M.    & f.}.XXXX[.d.<.#X#X#X#X#X#X#X#X#X#X#X#X#X#X#X#X#X#X#X",
"#X#X#X#X#X#X#X#X#X#X#X#X#X#X#X#X#X#X#X#XK...W W 0 [ i.G.H.L.A.Z.A.A.9 $ 5 x.].XXXXXXg.<.#X#X#X#X#X#X#X#X#X#X#X#X#X#X#X#X#X#X#X",
"#X#X#X#X#X#X#X#X#X#X#X#X#X#X#X#X#X#X#X  x...W W W 0   W b.A.A.A.Z.A.Q 9 & x.].XXXXXXg.J #X#X#X#X#X#X#X#X#X#X#X#X#X#X#X#X#X#X#X",
"#X#X#X#X#X#XOX.XW.#X#X#X#X#X#X#X#X  F K.                ' Z.A.A.b.Q         R.XXXXXX).l.<.#X#X#X#X#X#X#X#X#X#X#X#X#X#X#X#X#X#X",
"#X#X#X#X#XW.OX@X.XW.W.W.W.W.W.W.W.,.i.E.;.;.;.;.;.;.;.i ] | | | ] ~ ;.f @   D R.XX|.).l.<.#X#X#X#X#X#X#X#X#X#X#X#X#X#X#X#X#X#X",
"#X#X#X#X#XW.!..X+X X X!.W.W.I.P.W.P.I.W.>.U.Q.>.P.I.I.h g p p p g h W.=.7     %.].]._.z.3.#X#X#X#X#X#X#X#X#X#X#X#X#X#X#X#X#X#X",
"#X#X#X#X#XW.  U.OXOXOX.XW.W.O.= W.g o.W.  ;.U.  p h h h =       = h W.:.g     F x.x.x.x.x.3.<.#X#X#X#X#X#X#X#X#X#X#X#X#X#X#X#X",
"#X#X#X#X#XO.  :.Q.@.@.#.O.O.i o O.* i O.  p o.  p h h h :.U.U.U.T.Y.W.:.g     O 5 7 p.{.{.w.<.#X#X#X#X#X#X#X#X#X#X#X#X#X#X#X#X",
"#X#X#X#X#Xh = +.y.a Z Z a A > @ ( , j :.O.@.:.o.;.:.:.h @.>.>.>.>.>.>.$.t     6 F *.E.XXXX~.r.#X#X#X#X#X#X#X#X#X#X#X#X#X#X#X#X",
"#X#X#X#X#Xh h m M < M x < N z 1 B l -.W.W.W.W.W.W.W.W.h h h h h h h h t :     F x.XXXXXXXXXX~.J #X#X#X#X#X#X#X#X#X#X#X#X#X#X#X",
"#X#X#X#X#X#X#XN M < '.`.x.XXt.l N l t h h h h h h A N < 7.K.XXXX`.x.  @.W.W.~.x.x.XXXXXXXXXXJ.<.#X#X#X#X#X#X#X#X#X#X#X#X#X#X#X",
"#X#X#X#X#X#X#Xz x 7./.(.x.).%.@ z , 6 h h p = = t c N < C 6.).).(.x.&.%.@.W.E.~.x.).J.g.g.g.w.<.#X#X#X#X#X#X#X#X#X#X#X#X#X#X#X",
"#X#X#X#X#X#X#X#Xn x.x.x.x.x.F . < . = h h =     @ 1 v - l B 8.k.x.x.8.H * I.I.h.j.j.q.<.J <.<.<.#X#X#X#X#X#X#X#X#X#X#X#X#X#X#X",
"#X#X#X#X#X#X#X#X#X#X#X#X#X#X#X#X#X#X#X#X#X#X#X    + <   @ :   e.x.x.    o h h F <.<.#X#X#X#X#X#X#X#X#X#X#X#X#X#X#X#X#X#X#X#X#X",
"#X#X#X#X#X#X#X#X#X#X#X#X#X#X#X#X#X#X#X#X#X#X#X#X#X. . M.B.B.M.F.S.S.: : : 3 3 4 #X#X#X#X#X#X#X#X#X#X#X#X#X#X#X#X#X#X#X#X#X#X#X",
"#X#X#X#X#X#X#X#X#X#X#X#X#X#X#X#X#X#X#X#X#X#X#X#X#X0 9 b.V.A.A.A.V.b.e w < < < < #X#X#X#X#X#X#X#X#X#X#X#X#X#X#X#X#X#X#X#X#X#X#X",
"#X#X#X#X#X#X#X#X#X#X#X#X#X#X#X#X#X#X#X#X#X#X#X#XW W W W b.A.A.A.b.W W e < < < < #X#X#X#X#X#X#X#X#X#X#X#X#X#X#X#X#X#X#X#X#X#X#X",
"#X#X#X#X#X#X#X#X#X#X#X#X#X#X#X#X#X#X#X#X#X#X#XA.A.A.A.W W W W W W W A.A.V.W 0 9 #X#X#X#X#X#X#X#X#X#X#X#X#X#X#X#X#X#X#X#X#X#X#X",
"#X#X#X#X#X#X#X#X#X#X#X#X#X#X#X#X#X#X#X#X#X#XA.A.A.A.A.W W W W W _ b.A.A.Z.b.P 8 #X#X#X#X#X#X#X#X#X#X#X#X#X#X#X#X#X#X#X#X#X#X#X",
"#X#X#X#X#X#X#X#X#X#X#X#X#X#X#X#X#X#X#X#X#XV.A.A.A.V.m.W U P P U c.A.A.A.A.A.Y 8 #X#X#X#X#X#X#X#X#X#X#X#X#X#X#X#X#X#X#X#X#X#X#X",
"#X#X#X#X#X#X#X#X#X#X#X#X#X#X#X#X#X#X#X#XW b.A.A.A.b.W W 9     L c.A.A.A.A.A.Y 8 #X#X#X#X#X#X#X#X#X#X#X#X#X#X#X#X#X#X#X#X#X#X#X",
"#X#X#X#X#X#X#X#X#X#X#X#X#X#X#X#X#X#X#X#XW b.A.A.c.Q W $     #XX E A.A.A.A.A._ K 8 #X#X#X#X#X#X#X#X#X#X#X#X#X#X#X#X#X#X#X#X#X#X",
"#X#X#X#X#X#X#X#X#X#X#X#X#X#X#X#X#X#X#X#XE } N.b.! P 0     #X#X#XT n.A.A.Z.b.! P 8 #X#X#X#X#X#X#X#X#X#X#X#X#X#X#X#X#X#X#X#X#X#X",
"#X#X#X#X#X#X#X#X#X#X#X#X#X#X#X#X#X#X#X#Xh h ^ W W 0     #X#X#X#X#XW A.A.V.W W P 8 #X#X#X#X#X#X#X#X#X#X#X#X#X#X#X#X#X#X#X#X#X#X",
"#X#X#X#X#X#X#X#X#X#X#X#X#X#X#X#X#X#X#X< W.W.Y.h *     #X#X#X#X#X#X  W E h h h d 8 #X#X#X#X#X#X#X#X#X#X#X#X#X#X#X#X#X#X#X#X#X#X",
"#X#X#X#X#X#X#X#X#X#X#X#X#X#X#X#X#X#X#X< W.W.T.t O   #X#X#X#X#X#X#X#Xe f o.>.>.@.d #X#X#X#X#X#X#X#X#X#X#X#X#X#X#X#X#X#X#X#X#X#X",
"#X#X#X#X#X#X#X#X#X#X#X#X#X#X#X#X#X#X#Xw G.>.,.- .   #X#X#X#X#X#X#X#X< t [ W.W.>.h #X#X#X#X#X#X#X#X#X#X#X#X#X#X#X#X#X#X#X#X#X#X",
"#X#X#X#X#X#X#X#X#X#X#X#X#X#X#X#X#X#X#XW : : :       #X#X#X#X#X#X#X#X< < b W.W.a.h   #X#X#X#X#X#X#X#X#X#X#X#X#X#X#X#X#X#X#X#X#X",
"#X#X#X#X#X#X#X#X#X#X#X#X#X#X#X#X#XW W W B.) T U %   #X#X#X#X#X#X#X#X#X< 3 b b R T U 9   #X#X#X#X#X#X#X#X#X#X#X#X#X#X#X#X#X#X#X",
"#X#X#X#X#X#X#X#X#X#X#X#X#X#X#X#X#X0 T c.F.n.) 0 $   #X#X#X#X#X#X#X#X#X@ , / / ` v.W 9   #X#X#X#X#X#X#X#X#X#X#X#X#X#X#X#X#X#X#X",
"#X#X#X#X#X#X#X#X#X#X#X#X#X#X#X#X#X  E A.A.A.M.      #X#X#X#X#X#X#X#X#X  % A.A.A.A.W 9   #X#X#X#X#X#X#X#X#X#X#X#X#X#X#X#X#X#X#X",
"#X#X#X#X#X#X#X#X#X#X#X#X#X#X#X#X#X              #X#X#X#X#X#X#X#X#X#X#X  X W m.b.W       #X#X#X#X#X#X#X#X#X#X#X#X#X#X#X#X#X#X#X",
"#X#X#X#X#X#X#X#X#X#X#X#X#X#X#X#X#X              #X#X#X#X#X#X#X#X#X#X#X#X$ 9 I u 9         #X#X#X#X#X#X#X#X#X#X#X#X#X#X#X#X#X#X",
"#X#X#X#X#X#X#X#X#X#X#X#X#X#X#X#X#X    o o . .   #X#X#X#X#X#X#X#X#X#X#X#X#X      . o o .   #X#X#X#X#X#X#X#X#X#X#X#X#X#X#X#X#X#X",
"#X#X#X#X#X#X#X#X#X#X#X#X#X#X#X#X#X  = h h t :   #X#X#X#X#X#X#X#X#X#X#X#X#X#X  + < h t :   #X#X#X#X#X#X#X#X#X#X#X#X#X#X#X#X#X#X",
"#X#X#X#X#X#X#X#X#X#X#X#X#X#X#X#X#X  = h h 6 . #X#X#X#X#X#X#X#X#X#X#X#X#X#X#X  + < h j g   #X#X#X#X#X#X#X#X#X#X#X#X#X#X#X#X#X#X",
"#X#X#X#X#X#X#X#X#X#X#X#X#X#X#X#X#X  = h s &   #X#X#X#X#X#X#X#X#X#X#X#X#X#X#X#X+ @ a j j + . #X#X#X#X#X#X#X#X#X#X#X#X#X#X#X#X#X",
"#X#X#X#X#X#X#X#X#X#X#X#X#X#X#X#X#X  = h < +   #X#X#X#X#X#X#X#X#X#X#X#X#X#X#X#X#X  < a j < .   #X#X#X#X#X#X#X#X#X#X#X#X#X#X#X#X",
"#X#X#X#X#X#X#X#X#X#X#X#X#X#X#X#X#X  = h < @   #X#X#X#X#X#X#X#X#X#X#X#X#X#X#X#X#X#X  i h h *   #X#X#X#X#X#X#X#X#X#X#X#X#X#X#X#X",
"#X#X#X#X#X#X#X#X#X#X#X#X#X#X#X#X    & t + . #X#X#X#X#X#X#X#X#X#X#X#X#X#X#X#X#X#X#X#X* = = o   #X#X#X#X#X#X#X#X#X#X#X#X#X#X#X#X",
"#X#X#X#X#X#X#X#X#X#X#X#X#X#X#X#Xo o @ <   #X#X#X#X#X#X#X#X#X#X#X#X#X#X#X#X#X#X#X#X#X    o o o #X#X#X#X#X#X#X#X#X#X#X#X#X#X#X#X",
"#X#X#X#X#X#X#X#X#X#X#X#X#X#X< 3 h h a <   #X#X#X#X#X#X#X#X#X#X#X#X#X#X#X#X#X#X#X#X#X  o h h i   #X#X#X#X#X#X#X#X#X#X#X#X#X#X#X",
"#X#X#X#X#X#X#X#X#X#X#X#X< W.Y.T.Y.G 3 <   #X#X#X#X#X#X#X#X#X#X#X#X#X#X#X#X#X#X#X#X  @.U.Y.Y.:.j   #X#X#X#X#X#X#X#X#X#X#X#X#X#X",
"#X#X#X#X#X#X#X#X#X#X#X#X@ ;.;.;.;.r @ @   #X#X#X#X#X#X#X#X#X#X#X#X#X#X#X#X#X#X#X#X  j ;.;.;.o.i   #X#X#X#X#X#X#X#X#X#X#X#X#X#X",
"#X#X#X#X#X#X#X#X#X#X#X#X                  #X#X#X#X#X#X#X#X#X#X#X#X#X#X#X#X#X#X#X#X                #X#X#X#X#X#X#X#X#X#X#X#X#X#X",
"#X#X#X#X#X#X#X#X#X#X#X#X#X#X#X#X#X#X#X#X#X#X#X#X#X#X#X#X#X#X#X#X#X#X#X#X#X#X#X#X#X#X#X#X#X#X#X#X#X#X#X#X#X#X#X#X#X#X#X#X#X#X#X",
"#X#X#X#X#X#X#X#X#X#X#X#X#X#X#X#X#X#X#X#X#X#X#X#X#X#X#X#X#X#X#X#X#X#X#X#X#X#X#X#X#X#X#X#X#X#X#X#X#X#X#X#X#X#X#X#X#X#X#X#X#X#X#X",
"#X#X#X#X#X#X#X#X#X#X#X#X#X#X#X#X#X#X#X#X#X#X#X#X#X#X#X#X#X#X#X#X#X#X#X#X#X#X#X#X#X#X#X#X#X#X#X#X#X#X#X#X#X#X#X#X#X#X#X#X#X#X#X",
"#X#X#X#X#X#X#X#X#X#X#X#X#X#X#X#X#X#X#X#X#X#X#X#X#X#X#X#X#X#X#X#X#X#X#X#X#X#X#X#X#X#X#X#X#X#X#X#X#X#X#X#X#X#X#X#X#X#X#X#X#X#X#X"
};
